# xmcd
#
# Track frame offsets:
#	150
#	15969
#	33525
#	48933
#	62368
#	80690
#	96486
#	114972
#	126156
#	144984
#	170571
#	185505
#	199048
#	208862
#	226680
#	245925
#	259755
#	280800
#	301504
#
# Disc length: 4257 seconds
#
# Revision: 1
# Processed by: cddbd v1.5.2PL0 Copyright (c) Steve Scherf et al.
# Submitted via: audiograbber 1.83.01
#
DISCID=02109f13
DTITLE=Timbaland - Timbaland Presents Shock Value
DYEAR=2007
DGENRE=Hip-Hop
TTITLE0=Oh Timbaland
TTITLE1=Give It To Me (Ft. Nelly Furtado and Justin Timbalake)
TTITLE2=Release (Ft. Justin Timbalake)
TTITLE3=Way I Are (Ft. Keri Hilson and D.O.E.)
TTITLE4=Bounce (Ft. Dr. Dre, Missy Elliott and Justin Timbalake)
TTITLE5=Come And Get Me (50 Cent and Tony Yayo)
TTITLE6=Kill Yourself (Ft. Sebastian and Attitude)
TTITLE7=Boardmeeting (Ft. Magoo)
TTITLE8=Fantasy (Ft. Money)
TTITLE9=Scream (Ft. Keri Hilson and Nicole Scherzinger))
TTITLE10=Miscommunication (Ft. Keri Hilson and Sebastian)
TTITLE11=Bombay (Ft. Amar and Jim Beanz)
TTITLE12=Throw It On Me (Ft. The Hives)
TTITLE13=Time (Ft. She Wants Revenge)
TTITLE14=One And Only (Ft. Fallout Boy)
TTITLE15=Apologize (Ft. One Republic)
TTITLE16=2 Man Show (FT. Elton John)
TTITLE17=Hello (Ft. Keri Hilson and Attitude)
TTITLE18=Come Around (Ft. M.I.A.)
EXTD=
EXTT0=
EXTT1=
EXTT2=
EXTT3=
EXTT4=
EXTT5=
EXTT6=
EXTT7=
EXTT8=
EXTT9=
EXTT10=
EXTT11=
EXTT12=
EXTT13=
EXTT14=
EXTT15=
EXTT16=
EXTT17=
EXTT18=
PLAYORDER=
